<svg width="120" height="120" xmlns="http://www.w3.org/2000/svg">
	<rect x="0" y="0" width="120" height="120" rx="20" ry="20" fill="crimson"/>
	<g transform="translate(10,10)">
		<rect x="0" y="0" width="100" height="100" rx="10" ry="10" fill="white"/>
		<path d="M 20 0 L 20 20 C 20 30 10 40 10 50 L 10 100 L 40 100 L 40 50 C 40 40 30 30 30 20 L 30 0" fill="crimson" stroke="none"/>
		<path d="M 65 40 C 60 60 60 70 73 80 L 73 95 L 60 100 L 90 100 L 77 95 L 77 80 C 90 70 90 60 85 40" fill="crimson" stroke="none"/>
	</g>
</svg>

